<svg xmlns="http://www.w3.org/2000/svg" viewBox="0 0 1200 540" role="img" aria-label="Inbox Automator workflow">
  <defs>
    <pattern id="grid" width="24" height="24" patternUnits="userSpaceOnUse">
      <path d="M24 0L0 0 0 24" fill="none" stroke="#111" stroke-width="0.5" opacity="0.16" />
    </pattern>
    <marker id="arr" viewBox="0 0 10 10" refX="9" refY="5" markerWidth="7" markerHeight="7" orient="auto">
      <path d="M0 0L10 5L0 10z" fill="#111" />
    </marker>
  </defs>

  <rect width="1200" height="540" fill="#f4f1ea" />
  <rect width="1200" height="540" fill="url(#grid)" />
  <rect x="8" y="8" width="1184" height="524" fill="none" stroke="#111" stroke-width="3" />

  <rect x="20" y="20" width="1160" height="46" fill="#111" />
  <text x="36" y="50" fill="#f4f1ea" font-family="JetBrains Mono, monospace" font-size="16" font-weight="700" letter-spacing="1.5">INBOX-AUTOMATOR // N8N FLOW // STATUS ● LIVE</text>
  <text x="1160" y="50" fill="#facc15" text-anchor="end" font-family="JetBrains Mono, monospace" font-size="12" font-weight="700" letter-spacing="1">AVG HANDOFF 12s</text>

  <g font-family="Archivo Black, Arial Black, sans-serif" font-size="13" fill="#111">
    <rect x="44" y="148" width="156" height="98" fill="#f4f1ea" stroke="#111" stroke-width="3" />
    <text x="60" y="184">GMAIL</text>
    <text x="60" y="207">TRIGGER</text>

    <rect x="236" y="148" width="156" height="98" fill="#f4f1ea" stroke="#111" stroke-width="3" />
    <text x="252" y="184">NORMALIZE</text>
    <text x="252" y="207">CLEAN BODY</text>

    <rect x="236" y="280" width="156" height="90" fill="#facc15" stroke="#111" stroke-width="3" />
    <text x="252" y="314">REDIS</text>
    <text x="252" y="337">THREAD CACHE</text>

    <rect x="430" y="204" width="222" height="140" fill="#ff5b1f" stroke="#111" stroke-width="3" />
    <text x="448" y="242">OPENAI CLASSIFY</text>
    <text x="448" y="266">INTENT + CONFIDENCE</text>
    <text x="448" y="290">DRAFT REPLY</text>

    <rect x="690" y="132" width="182" height="248" fill="#f4f1ea" stroke="#111" stroke-width="3" />
    <text x="708" y="170">CONFIDENCE</text>
    <text x="708" y="194">SWITCH</text>
    <line x1="706" y1="212" x2="856" y2="212" stroke="#111" stroke-width="2" />
    <text x="708" y="238" font-family="JetBrains Mono, monospace" font-size="11">≥ 0.85 AUTO</text>
    <text x="708" y="286" font-family="JetBrains Mono, monospace" font-size="11">0.6-0.85 REVIEW</text>
    <text x="708" y="334" font-family="JetBrains Mono, monospace" font-size="11">&lt; 0.6 ESCALATE</text>

    <rect x="910" y="92" width="244" height="86" fill="#f4f1ea" stroke="#111" stroke-width="3" />
    <text x="928" y="126">CRM UPDATE</text>

    <rect x="910" y="198" width="244" height="86" fill="#facc15" stroke="#111" stroke-width="3" />
    <text x="928" y="232">SLACK NOTIFY</text>

    <rect x="910" y="304" width="244" height="86" fill="#f4f1ea" stroke="#111" stroke-width="3" />
    <text x="928" y="338">HUMAN REVIEW</text>

    <rect x="44" y="396" width="348" height="88" fill="#111" stroke="#111" stroke-width="3" />
    <text x="62" y="430" fill="#f4f1ea">POSTGRES AUDIT + DLQ</text>
    <text x="62" y="455" fill="#f4f1ea">ERROR DIGEST TO SLACK</text>
  </g>

  <g fill="none" stroke="#111" stroke-width="3" marker-end="url(#arr)">
    <path d="M200 197L236 197" />
    <path d="M314 246L314 280" />
    <path d="M392 197L430 244" />
    <path d="M392 320L430 304" />
    <path d="M652 274L690 274" />
    <path d="M872 168L910 136" />
    <path d="M872 238L910 240" />
    <path d="M872 322L910 346" />
    <path d="M520 344C520 410 392 410 392 440" />
  </g>
</svg>
